<?xml version="1.0" encoding="iso-8859-1"?>
<!-- Uploaded to: SVG Repo, www.svgrepo.com, Generator: SVG Repo Mixer Tools -->
<svg version="1.1" id="Layer_1" xmlns="http://www.w3.org/2000/svg" xmlns:xlink="http://www.w3.org/1999/xlink" 
	 viewBox="0 0 511.999 511.999" xml:space="preserve">
<g>
	<g>
		<path d="M500.807,299.839l-5.543-23.212c-4.763-19.949-17.469-36.164-33.987-43.376L309.21,166.859l1.243-62.771l0.633-31.996
			c0.006-0.451,0.004-0.898,0.001-1.344l-0.003-0.509c0-0.002,0-0.003,0-0.005c0-0.003,0-0.005,0-0.008
			C310.966,30.847,289.003,0,261.085,0h-10.172c-27.907,0-49.834,30.787-49.924,70.093c0,0.001,0,0.003,0,0.004l-0.002,0.428
			c-0.003,0.528-0.005,1.058,0.004,1.611l0.587,31.88l1.159,62.864l-152.016,66.37c-16.518,7.212-29.224,23.427-33.987,43.375
			l-5.543,23.212c-0.834,3.494,0.232,7.169,2.804,9.675c1.93,1.879,4.492,2.894,7.118,2.894c0.875,0,1.759-0.113,2.627-0.345
			l156.696-41.791h24.208l1.938,105.081c-0.055,16.75,2.54,33.442,7.714,49.81l-48.09,29.172c-2.726,1.654-4.522,4.488-4.854,7.66
			l-3.854,36.856c-0.357,3.406,1.02,6.762,3.664,8.938c1.849,1.522,4.147,2.322,6.481,2.322c1.002,0,2.012-0.148,2.995-0.45
			l69.325-21.307l5.948,16.844c1.44,4.078,5.294,6.803,9.619,6.803c4.324,0,8.178-2.727,9.617-6.804l5.946-16.843l69.326,21.307
			c0.983,0.302,1.992,0.45,2.996,0.45c2.334,0,4.631-0.802,6.481-2.322c2.644-2.176,4.019-5.532,3.664-8.938l-3.854-36.856
			c-0.335-3.204-2.163-6.061-4.932-7.706l-47.878-28.456c5.398-16.619,8.156-33.626,8.195-50.746l2.076-104.815h24.4l156.696,41.791
			c0.869,0.233,1.752,0.345,2.627,0.345c2.625,0,5.189-1.015,7.118-2.893C500.577,307.008,501.642,303.333,500.807,299.839z
			 M179.101,249.873c-0.887,0-1.771,0.115-2.628,0.345l-141.469,37.73l1.572-6.584c3.285-13.757,11.624-24.755,22.308-29.419
			l144.263-62.984l1.123,60.912H179.101z M229.175,36.961c5.449-10.106,13.251-16.563,21.74-16.563h10.172
			c8.487,0,16.293,6.458,21.756,16.57l0.002,0.008c-8.34-4.831-17.433-7.398-26.844-7.398c-9.403,0-18.49,2.565-26.827,7.391
			L229.175,36.961z M256,49.976c13.009,0,25.531,8.365,34.665,23.056l-0.077,3.959C280.266,68.728,268.385,64.255,256,64.255
			c-12.355,0-24.211,4.454-34.518,12.682l-0.073-4.019C230.536,58.3,243.03,49.976,256,49.976z M179.388,485.629l1.725-16.479
			l40.533-24.587l10.461,24.864L179.388,485.629z M255.546,472.538l-16.833-40.008c-7.863-18.686-11.81-37.934-11.732-57.21
			c0-0.076,0-0.152-0.002-0.228l-4.949-268.428c9.071-14.021,21.331-22.01,33.969-22.01c12.655,0,24.924,8.006,33.999,22.055
			l-5.308,268.065c-0.001,0.061-0.002,0.123-0.002,0.185c-0.033,19.541-4.113,38.966-12.129,57.738L255.546,472.538z
			 M329.948,469.208l1.718,16.422l-52.623-16.173l10.389-24.329L329.948,469.208z M335.528,250.218
			c-0.858-0.229-1.741-0.345-2.628-0.345h-25.333l1.207-60.947l144.343,63.019c10.684,4.665,19.023,15.662,22.308,29.42l1.572,6.584
			L335.528,250.218z"/>
	</g>
</g>
<g>
	<g>
		<path d="M64.255,313.116c-5.632,0-10.199,4.566-10.199,10.199v68.335c0,5.633,4.567,10.199,10.199,10.199
			c5.632,0,10.199-4.566,10.199-10.199v-68.335C74.454,317.682,69.887,313.116,64.255,313.116z"/>
	</g>
</g>
<g>
	<g>
		<path d="M124.43,297.817c-5.632,0-10.199,4.566-10.199,10.199v40.797c0,5.633,4.567,10.199,10.199,10.199
			c5.632,0,10.199-4.566,10.199-10.199v-40.797C134.629,302.383,130.062,297.817,124.43,297.817z"/>
	</g>
</g>
<g>
	<g>
		<path d="M124.43,371.251c-5.632,0-10.199,4.566-10.199,10.199v8.159c0,5.633,4.567,10.199,10.199,10.199
			c5.632,0,10.199-4.566,10.199-10.199v-8.159C134.629,375.817,130.062,371.251,124.43,371.251z"/>
	</g>
</g>
<g>
	<g>
		<path d="M447.745,313.116c-5.632,0-10.199,4.566-10.199,10.199v68.335c0,5.633,4.567,10.199,10.199,10.199
			c5.632,0,10.199-4.566,10.199-10.199v-68.335C457.944,317.682,453.377,313.116,447.745,313.116z"/>
	</g>
</g>
<g>
	<g>
		<path d="M387.569,297.817c-5.632,0-10.199,4.566-10.199,10.199v40.797c0,5.633,4.567,10.199,10.199,10.199
			c5.632,0,10.199-4.566,10.199-10.199v-40.797C397.769,302.383,393.201,297.817,387.569,297.817z"/>
	</g>
</g>
<g>
	<g>
		<path d="M387.569,371.251c-5.632,0-10.199,4.566-10.199,10.199v8.159c0,5.633,4.567,10.199,10.199,10.199
			c5.632,0,10.199-4.566,10.199-10.199v-8.159C397.769,375.817,393.201,371.251,387.569,371.251z"/>
	</g>
</g>
</svg>
